<?xml version="1.0" encoding="utf-8"?>
<!-- Generator: Adobe Illustrator 24.2.1, SVG Export Plug-In . SVG Version: 6.00 Build 0)  -->
<svg version="1.1" id="레이어_1" xmlns="http://www.w3.org/2000/svg" xmlns:xlink="http://www.w3.org/1999/xlink" x="0px"
	 y="0px" viewBox="0 0 100 100" style="enable-background:new 0 0 100 100;" xml:space="preserve">
<style type="text/css">
	.st0{fill:#CCECDD;}
	.st1{fill:#CCECDD;}
	.st2{fill:#CCECDD;}
	.st3{fill:#CCECDD;}
</style>
<path class="st0" d="M29.57,56.28c-0.52,0.37-1.07,0.7-1.65,0.98c-0.99,0.46-2.02,0.77-3.11,0.89c-0.43,0.05-0.85,0.08-1.28,0.08
	c-2.92,0-5.85,0-8.77,0c0-6.29,0-12.59,0-18.88c0.06,0,0.12,0,0.18,0c2.17,0,4.35,0,6.52,0c0.85,0,1.69-0.02,2.54,0.01
	c0.93,0.03,1.84,0.19,2.73,0.48c1.64,0.54,3.05,1.43,4.23,2.7c0.63,0.68,1.14,1.43,1.55,2.26c0.23,0.47,0.41,0.96,0.57,1.45
	c0.16,0.61,0.29,1.22,0.34,1.85c0.07,0.8,0.02,1.6-0.14,2.39c-0.36,1.84-1.22,3.41-2.52,4.75C30.39,55.63,29.99,55.96,29.57,56.28z
	 M20.77,48.79c0,1.18,0,2.37,0,3.55c0,0.11,0.03,0.14,0.14,0.14c0.89,0,1.78,0,2.67,0c0.71,0,1.38-0.16,1.99-0.52
	c1.11-0.65,1.77-1.62,1.87-2.91c0.09-1.08-0.28-2.01-1.04-2.78c-0.77-0.78-1.71-1.15-2.8-1.16c-0.9-0.01-1.79,0-2.69,0
	c-0.11,0-0.14,0.03-0.14,0.14C20.77,46.43,20.77,47.61,20.77,48.79z"/>
<path class="st1" d="M60.12,35.17c0,0.04,0,0.07,0,0.11c0,1.93,0,3.86,0,5.79c0,0.04,0,0.08,0.01,0.12
	c-0.56,0.42-1.09,0.88-1.54,1.42c-0.73,0.87-1.26,1.86-1.56,2.96c-0.19,0.71-0.27,1.43-0.27,2.16c0,1.3,0,2.61,0,3.91
	c-0.42,0.3-0.85,0.59-1.3,0.84c-1.08,0.57-2.22,0.92-3.44,1.04c-1.25,0.13-2.48-0.02-3.68-0.38c-0.02-0.42-0.07-0.83-0.15-1.24
	c-0.22-1.13-0.65-2.17-1.27-3.14c-0.46-0.71-1.01-1.34-1.64-1.9c-0.35-0.31-0.72-0.59-1.11-0.85c-0.66-0.43-1.36-0.76-2.1-1.03
	c0-3.23,0-6.46,0-9.68c0-0.04,0-0.08-0.01-0.12c2,0,4,0,6,0c0,0.06,0,0.12,0,0.18c0,3.15,0,6.3,0,9.45c0,0.23,0.02,0.47,0.07,0.7
	c0.34,1.53,1.85,2.52,3.44,2.28c1.46-0.22,2.59-1.45,2.58-3.05c-0.03-3.19-0.01-6.37-0.01-9.56C56.12,35.17,58.12,35.17,60.12,35.17
	z"/>
<path class="st2" d="M56.74,51.63c0-1.3,0-2.61,0-3.91c0-0.73,0.08-1.45,0.27-2.16c0.3-1.1,0.83-2.08,1.56-2.96
	c0.45-0.54,0.98-1,1.54-1.42c0.91-0.64,1.91-1.08,2.99-1.33c1.16-0.26,2.33-0.28,3.5-0.06c1.31,0.25,2.49,0.78,3.55,1.6
	c0.07,0.06,0.12,0.06,0.2,0c0.98-0.76,2.08-1.27,3.29-1.55c0.44-0.1,0.89-0.16,1.35-0.18c0.18-0.01,0.37-0.02,0.55-0.02
	c0.88,0,1.75,0.13,2.59,0.41c0.9,0.29,1.73,0.72,2.48,1.29c0.83,0.63,1.52,1.39,2.05,2.28c0.53,0.88,0.87,1.82,1.02,2.84
	c0.06,0.39,0.08,0.78,0.08,1.17c0,3.48,0,6.97,0,10.45c0,0.12-0.03,0.16-0.15,0.16c-1.89,0-3.77,0-5.66,0
	c-0.13,0-0.16-0.03-0.16-0.16c0-3.47,0-6.93,0-10.4c0-0.53-0.13-1.02-0.48-1.43c-0.42-0.5-0.96-0.79-1.62-0.84
	c-0.51-0.04-0.98,0.07-1.4,0.33c-0.69,0.43-1.05,1.07-1.05,1.89c0,3.2,0,6.41,0,9.61c0,0.28-0.01,0.56,0,0.84
	c0,0.13-0.02,0.17-0.16,0.17c-1.05-0.01-2.11,0-3.16,0c-0.83,0-1.67,0-2.5,0c-0.14,0-0.16-0.04-0.16-0.17
	c0-3.47-0.01-6.95,0.01-10.42c0.01-1.1-0.76-1.97-1.74-2.2c-1.21-0.28-2.45,0.44-2.75,1.61c-0.05,0.2-0.07,0.4-0.07,0.6
	c0,3.47,0,6.93,0,10.4c0,0.21,0.03,0.18-0.18,0.18c-1.87,0-3.75,0-5.62,0c-0.2,0-0.18,0.03-0.18-0.18c0-2.08,0-4.16,0-6.24
	C56.74,51.75,56.74,51.69,56.74,51.63z"/>
<path class="st3" d="M33.08,46.27c0.6-0.42,1.23-0.78,1.9-1.07c0.91-0.38,1.85-0.63,2.84-0.72c1.43-0.14,2.83,0.02,4.19,0.48
	c0.01,0,0.03,0.01,0.04,0.01c0.74,0.27,1.44,0.61,2.1,1.03c0.39,0.26,0.76,0.54,1.11,0.85c0.63,0.56,1.18,1.19,1.64,1.9
	c0.63,0.96,1.05,2.01,1.27,3.14c0.08,0.41,0.13,0.82,0.15,1.24c0.01,0.18,0.02,0.37,0.02,0.55c0,3.04,0,6.08,0,9.11
	c0,0.17,0,0.17-0.18,0.14c-0.78-0.12-1.53-0.3-2.26-0.6c-0.51-0.21-1-0.48-1.42-0.84c-0.06-0.05-0.11-0.07-0.18-0.01
	c-1.2,0.82-2.52,1.34-3.95,1.57c-1.09,0.17-2.18,0.16-3.27-0.03c-1.37-0.25-2.64-0.75-3.79-1.55c-1.84-1.27-3.09-2.98-3.7-5.14
	c0-0.02-0.01-0.04-0.01-0.05c0.41-0.32,0.81-0.65,1.18-1.03c1.3-1.34,2.16-2.92,2.52-4.75c0.16-0.79,0.2-1.59,0.14-2.39
	C33.36,47.49,33.24,46.88,33.08,46.27z M42.35,53.87c0-0.31,0-0.55-0.04-0.8c-0.02-0.11-0.04-0.22-0.07-0.33
	c-0.44-1.65-2.12-2.8-3.98-2.52c-1.68,0.25-2.88,1.58-2.99,3.1c-0.04,0.59-0.04,1.19,0.16,1.76c0.84,2.42,4.05,3.14,5.9,1.32
	C42.06,55.69,42.39,54.82,42.35,53.87z"/>
</svg>
