<svg width="54" height="39" viewBox="0 0 54 39" fill="none" xmlns="http://www.w3.org/2000/svg">
<g filter="url(#filter0_d_4_22)">
<path d="M6.39045 13.0813H46.9024C47.9464 13.0813 48.7928 13.9277 48.7928 14.9718V15.2234C48.7928 16.2675 47.9464 17.1139 46.9024 17.1139H6.39045C5.34638 17.1139 4.5 16.2675 4.5 15.2234V14.9718C4.5 13.9277 5.34638 13.0813 6.39045 13.0813Z" fill="white" stroke="white"/>
<path d="M6.39045 25.6627H46.9024C47.9464 25.6627 48.7928 26.509 48.7928 27.5531V27.8047C48.7928 28.8488 47.9464 29.6952 46.9024 29.6952H6.39045C5.34639 29.6952 4.5 28.8488 4.5 27.8047V27.5531C4.5 26.509 5.34639 25.6627 6.39045 25.6627Z" fill="white" stroke="white"/>
<path d="M6.39045 0.5H46.9024C47.9464 0.5 48.7928 1.34639 48.7928 2.39045V2.64208C48.7928 3.68615 47.9464 4.53253 46.9024 4.53253H6.39045C5.34638 4.53253 4.5 3.68615 4.5 2.64208V2.39045C4.5 1.34638 5.34638 0.5 6.39045 0.5Z" fill="white" stroke="white"/>
</g>
<defs>
<filter id="filter0_d_4_22" x="0" y="0" width="53.2928" height="38.1952" filterUnits="userSpaceOnUse" color-interpolation-filters="sRGB">
<feFlood flood-opacity="0" result="BackgroundImageFix"/>
<feColorMatrix in="SourceAlpha" type="matrix" values="0 0 0 0 0 0 0 0 0 0 0 0 0 0 0 0 0 0 127 0" result="hardAlpha"/>
<feOffset dy="4"/>
<feGaussianBlur stdDeviation="2"/>
<feComposite in2="hardAlpha" operator="out"/>
<feColorMatrix type="matrix" values="0 0 0 0 0 0 0 0 0 0 0 0 0 0 0 0 0 0 0.25 0"/>
<feBlend mode="normal" in2="BackgroundImageFix" result="effect1_dropShadow_4_22"/>
<feBlend mode="normal" in="SourceGraphic" in2="effect1_dropShadow_4_22" result="shape"/>
</filter>
</defs>
</svg>
